<?xml version="1.0" encoding="utf-8"?>
<!-- Generator: Adobe Illustrator 19.2.1, SVG Export Plug-In . SVG Version: 6.00 Build 0)  -->
<svg version="1.1" id="Layer_1" xmlns="http://www.w3.org/2000/svg" xmlns:xlink="http://www.w3.org/1999/xlink" x="0px" y="0px"
	 width="1920px" height="1080px" viewBox="0 0 1920 1080" style="enable-background:new 0 0 1920 1080;" xml:space="preserve">
<style type="text/css">
	.st0{opacity:0.25;}
	.st1{clip-path:url(#SVGID_2_);}
	.st2{fill:none;stroke:#B4B4B4;stroke-width:3;stroke-miterlimit:10;}
	.st3{fill:none;stroke:#B4B4B4;stroke-width:3;stroke-linejoin:round;stroke-miterlimit:10;}
	
		.st4{fill-rule:evenodd;clip-rule:evenodd;fill:none;stroke:#B4B4B4;stroke-width:3;stroke-linecap:round;stroke-linejoin:round;stroke-miterlimit:22.9256;}
	.st5{fill:none;stroke:#B4B4B4;stroke-width:3;stroke-linecap:round;stroke-linejoin:round;stroke-miterlimit:10;}
	.st6{opacity:0.5;}
</style>
<g class="st0">
	<defs>
		<rect id="SVGID_1_" class="st0" width="1920" height="1080"/>
	</defs>
	<clipPath id="SVGID_2_">
		<use xlink:href="#SVGID_1_"  style="overflow:visible;"/>
	</clipPath>
	<g class="st1">
		<circle class="st2" cx="105.1" cy="180.9" r="7.4"/>
		<circle class="st2" cx="583.1" cy="287" r="7.4"/>
		<circle class="st2" cx="636.8" cy="79.1" r="7.4"/>
		<circle class="st2" cx="86.3" cy="412.1" r="7.4"/>
		<circle class="st2" cx="455.9" cy="675.9" r="7.4"/>
		<circle class="st2" cx="801.8" cy="446" r="7.4"/>
		<circle class="st2" cx="388.7" cy="173.3" r="7.4"/>
		<circle class="st2" cx="711.8" cy="515.8" r="7.4"/>
		<circle class="st2" cx="955.3" cy="150" r="7.4"/>
		<path class="st3" d="M286.2,307.4l17.9-5.3c0,0,6.3,18.3,5.2,17.7C308.2,319.1,286.2,307.4,286.2,307.4z"/>
		<path class="st3" d="M143.9,596l18.6,0.5c0,0,0.4,19.4-0.5,18.4C161.2,614.1,143.9,596,143.9,596z"/>
		<path class="st3" d="M790.1,153.4l-11.3,14.8c0,0-15.9-11-14.6-11.2C765.3,156.8,790.1,153.4,790.1,153.4z"/>
		<path class="st3" d="M313.9,74.1L327,60.8c0,0,14.4,12.9,13.1,12.9C338.9,73.8,313.9,74.1,313.9,74.1z"/>
		<path class="st3" d="M874.9,674.4l17.2-7.1c0,0,8.2,17.5,7,17.1C898,683.9,874.9,674.4,874.9,674.4z"/>
		<path class="st3" d="M373.5,526.6l-16.5,8.6c0,0-9.7-16.7-8.5-16.4C349.6,519.2,373.5,526.6,373.5,526.6z"/>
		<path class="st3" d="M834.7,11.8l-1-18.6c0,0,19.3-2,18.4-1C851.2-6.8,834.7,11.8,834.7,11.8z"/>
		<path class="st3" d="M646.4,668.8l-2.5,18.5c0,0-19.3-1.7-18.3-2.5C626.6,684,646.4,668.8,646.4,668.8z"/>
		<circle class="st2" cx="46.7" cy="693.7" r="7.4"/>
		<circle class="st2" cx="177.5" cy="86.6" r="7.4"/>
		<g>
			<line class="st4" x1="779.6" y1="346" x2="779.6" y2="360.9"/>
			<line class="st4" x1="787.1" y1="353.5" x2="772.2" y2="353.5"/>
		</g>
		<g>
			<line class="st4" x1="530.8" y1="573" x2="520" y2="583.3"/>
			<line class="st4" x1="530.6" y1="583.5" x2="520.2" y2="572.8"/>
		</g>
		<g>
			<line class="st4" x1="235.1" y1="189.7" x2="242.8" y2="202.4"/>
			<line class="st4" x1="245.3" y1="192.2" x2="232.6" y2="199.9"/>
		</g>
		<g>
			<line class="st4" x1="765.4" y1="58.1" x2="779.6" y2="62.7"/>
			<line class="st4" x1="774.8" y1="53.3" x2="770.2" y2="67.5"/>
		</g>
		<g>
			<line class="st4" x1="81.4" y1="542.5" x2="71.5" y2="553.6"/>
			<line class="st4" x1="82" y1="553" x2="70.9" y2="543.1"/>
		</g>
		<g>
			<line class="st4" x1="962.7" y1="611.1" x2="962.7" y2="626"/>
			<line class="st4" x1="970.2" y1="618.5" x2="955.3" y2="618.5"/>
		</g>
		<g>
			<line class="st4" x1="439.6" y1="341" x2="427" y2="348.9"/>
			<line class="st4" x1="437.3" y1="351.2" x2="429.4" y2="338.7"/>
		</g>
		<path class="st3" d="M619.9,405.4l-2.3-18.5c0,0,19.1-3.3,18.3-2.3C635.1,385.6,619.9,405.4,619.9,405.4z"/>
		<path class="st3" d="M947.8,315.6l-16.5,8.6c0,0-9.7-16.7-8.5-16.4S947.8,315.6,947.8,315.6z"/>
		<line class="st4" x1="941.8" y1="42.1" x2="928.7" y2="49.1"/>
		<line class="st4" x1="529.3" y1="361.7" x2="524.7" y2="375.9"/>
		<line class="st4" x1="230.9" y1="-4.3" x2="239.2" y2="8.1"/>
		<line class="st4" x1="198" y1="353.5" x2="205.8" y2="366.2"/>
		<line class="st4" x1="613.5" y1="566" x2="628.3" y2="567.6"/>
		<line class="st4" x1="291.7" y1="630.2" x2="303.9" y2="621.7"/>
		<line class="st4" x1="506.4" y1="107.3" x2="491.9" y2="110.8"/>
		<line class="st4" x1="675.7" y1="-5.2" x2="671.2" y2="9"/>
		<line class="st4" x1="530.4" y1="710.1" x2="531.2" y2="724.9"/>
		<line class="st4" x1="56.1" y1="480.3" x2="41.7" y2="484.4"/>
		<line class="st4" x1="355.5" y1="421" x2="341.2" y2="425.2"/>
		<line class="st4" x1="866.1" y1="549" x2="851.8" y2="553.1"/>
		<line class="st4" x1="699.4" y1="229" x2="685.9" y2="222.7"/>
		<line class="st4" x1="418.4" y1="249.4" x2="406.7" y2="240.3"/>
		<line class="st4" x1="93.5" y1="106.9" x2="79.2" y2="111.1"/>
		<g>
			<line class="st4" x1="128.8" y1="697.1" x2="118.8" y2="708.2"/>
			<line class="st4" x1="129.3" y1="707.6" x2="118.2" y2="697.7"/>
		</g>
		<circle class="st2" cx="1857.8" cy="530.9" r="7.4"/>
		<circle class="st2" cx="1268.3" cy="471.5" r="7.4"/>
		<circle class="st2" cx="1379.8" cy="651.4" r="7.4"/>
		<circle class="st2" cx="1876.6" cy="299.7" r="7.4"/>
		<circle class="st2" cx="1507" cy="35.9" r="7.4"/>
		<circle class="st2" cx="1129.2" cy="236.9" r="7.4"/>
		<circle class="st2" cx="1574.2" cy="538.5" r="7.4"/>
		<circle class="st2" cx="1262.8" cy="178.6" r="7.4"/>
		<circle class="st2" cx="1020.3" cy="522.1" r="7.4"/>
		<path class="st3" d="M1676.7,404.4l-17.9,5.3c0,0-6.3-18.3-5.2-17.7C1654.8,392.7,1676.7,404.4,1676.7,404.4z"/>
		<path class="st3" d="M1819,115.8l-18.6-0.5c0,0-0.4-19.4,0.5-18.4C1801.7,97.8,1819,115.8,1819,115.8z"/>
		<path class="st3" d="M1123.7,573.4l11.3-14.8c0,0,15.9,11,14.6,11.2C1148.4,570,1123.7,573.4,1123.7,573.4z"/>
		<path class="st3" d="M1649,637.7l-13.1,13.3c0,0-14.4-12.9-13.1-12.9C1624,638,1649,637.7,1649,637.7z"/>
		<path class="st3" d="M1088,37.4l-17.2,7.1c0,0-8.2-17.5-7-17.1C1064.9,27.9,1088,37.4,1088,37.4z"/>
		<path class="st3" d="M1589.4,185.2l16.5-8.6c0,0,9.7,16.7,8.5,16.4C1613.3,192.6,1589.4,185.2,1589.4,185.2z"/>
		<path class="st3" d="M1128.2,700l1,18.6c0,0-19.3,2-18.4,1C1111.7,718.6,1128.2,700,1128.2,700z"/>
		<path class="st3" d="M1300-20.4l1,18.6c0,0-19.3,2-18.4,1C1283.4-1.7,1300-20.4,1300-20.4z"/>
		<circle class="st2" cx="1916.2" cy="18.1" r="7.4"/>
		<circle class="st2" cx="1785.4" cy="625.2" r="7.4"/>
		<g>
			<g>
				<path class="st5" d="M1281.6,583.5c0,0,4.7,3.2,9.2,0.6c4.4-2.5,4.1-8.2,4.1-8.2s-0.3-5.7,4.1-8.2c4.4-2.5,9.2,0.6,9.2,0.6"/>
			</g>
			<g>
				<path class="st5" d="M1255.1,598.7c0,0,4.7,3.2,9.2,0.6c4.4-2.5,4.1-8.2,4.1-8.2s-0.3-5.7,4.1-8.2c4.4-2.5,9.2,0.6,9.2,0.6"/>
			</g>
			<g>
				<path class="st5" d="M1245.9,598c4.4-2.5,9.2,0.6,9.2,0.6"/>
			</g>
		</g>
		<g>
			<g>
				<path class="st5" d="M1717.5,2.9c0,0,0.2,5.7,4.9,7.8s9.1-1.5,9.1-1.5s4.4-3.6,9.1-1.5s4.9,7.8,4.9,7.8"/>
			</g>
			<g>
				<path class="st5" d="M1689.6-9.6c0,0,0.2,5.7,4.9,7.8s9.1-1.5,9.1-1.5s4.4-3.6,9.1-1.5s4.9,7.8,4.9,7.8"/>
			</g>
		</g>
		<g>
			<g>
				<path class="st5" d="M1488.5,703.4c0,0,2.1-5.3-1.2-9.1c-3.4-3.8-8.9-2.4-8.9-2.4s-5.5,1.5-8.9-2.4c-3.4-3.8-1.2-9.1-1.2-9.1"/>
			</g>
			<g>
				<path class="st5" d="M1508.7,726.3c0,0,2.1-5.3-1.2-9.1c-3.4-3.8-8.9-2.4-8.9-2.4s-5.5,1.5-8.9-2.4c-3.4-3.8-1.2-9.1-1.2-9.1"/>
			</g>
			<g>
				<path class="st5" d="M1509.9,735.4c-3.4-3.8-1.2-9.1-1.2-9.1"/>
			</g>
		</g>
		<g>
			<line class="st4" x1="1217" y1="366.9" x2="1217" y2="352"/>
			<line class="st4" x1="1209.6" y1="359.4" x2="1224.5" y2="359.4"/>
		</g>
		<g>
			<line class="st4" x1="1432.1" y1="138.8" x2="1442.9" y2="128.5"/>
			<line class="st4" x1="1432.3" y1="128.3" x2="1442.7" y2="139"/>
		</g>
		<g>
			<line class="st4" x1="1727.9" y1="522.1" x2="1720.1" y2="509.4"/>
			<line class="st4" x1="1717.6" y1="519.6" x2="1730.3" y2="511.9"/>
		</g>
		<g>
			<line class="st4" x1="1197.5" y1="653.7" x2="1183.3" y2="649.1"/>
			<line class="st4" x1="1188.1" y1="658.5" x2="1192.7" y2="644.3"/>
		</g>
		<g>
			<line class="st4" x1="1881.5" y1="169.3" x2="1891.4" y2="158.2"/>
			<line class="st4" x1="1880.9" y1="158.8" x2="1892" y2="168.7"/>
		</g>
		<g>
			<line class="st4" x1="1000.2" y1="100.7" x2="1000.2" y2="85.9"/>
			<line class="st4" x1="992.7" y1="93.3" x2="1007.6" y2="93.3"/>
		</g>
		<g>
			<line class="st4" x1="1523.3" y1="370.8" x2="1535.9" y2="362.9"/>
			<line class="st4" x1="1525.6" y1="360.6" x2="1533.6" y2="373.2"/>
		</g>
		<path class="st3" d="M1223.9,263.1l2.3,18.5c0,0-19.1,3.3-18.3,2.3C1208.7,282.9,1223.9,263.1,1223.9,263.1z"/>
		<path class="st3" d="M1075.4,366.6l16.5-8.6c0,0,9.7,16.7,8.5,16.4C1099.2,374,1075.4,366.6,1075.4,366.6z"/>
		<line class="st4" x1="1021.1" y1="669.7" x2="1034.2" y2="662.7"/>
		<line class="st4" x1="1433.6" y1="350.1" x2="1438.2" y2="335.9"/>
		<line class="st4" x1="1732" y1="716.1" x2="1723.7" y2="703.7"/>
		<line class="st4" x1="1764.9" y1="358.3" x2="1757.1" y2="345.6"/>
		<line class="st4" x1="1356.9" y1="121.9" x2="1342" y2="120.4"/>
		<line class="st4" x1="1671.3" y1="81.6" x2="1659" y2="90.1"/>
		<line class="st4" x1="1456.6" y1="604.5" x2="1471" y2="601"/>
		<line class="st4" x1="1214.8" y1="728.5" x2="1219.3" y2="714.3"/>
		<line class="st4" x1="1432.6" y1="1.7" x2="1431.7" y2="-13.1"/>
		<line class="st4" x1="1906.8" y1="231.6" x2="1921.2" y2="227.4"/>
		<line class="st4" x1="1607.4" y1="290.8" x2="1621.7" y2="286.7"/>
		<line class="st4" x1="1092.6" y1="141.1" x2="1106.9" y2="136.9"/>
		<line class="st4" x1="1219.5" y1="506.2" x2="1232.9" y2="512.6"/>
		<line class="st4" x1="1544.5" y1="462.4" x2="1556.3" y2="471.5"/>
		<line class="st4" x1="1869.4" y1="604.9" x2="1883.7" y2="600.7"/>
		<line class="st4" x1="997.9" y1="-7.6" x2="1002.5" y2="6.5"/>
		<g>
			<line class="st4" x1="1834.2" y1="14.7" x2="1844.1" y2="3.6"/>
			<line class="st4" x1="1833.6" y1="4.2" x2="1844.7" y2="14.1"/>
		</g>
		<g>
			<g>
				<path class="st5" d="M1643.1,578.6c0,0,4.7,3.2,9.2,0.6c4.4-2.5,4.1-8.2,4.1-8.2s-0.3-5.7,4.1-8.2c4.4-2.5,9.2,0.6,9.2,0.6"/>
			</g>
			<g>
				<path class="st5" d="M1616.6,593.7c0,0,4.7,3.2,9.2,0.6c4.4-2.5,4.1-8.2,4.1-8.2s-0.3-5.7,4.1-8.2c4.4-2.5,9.2,0.6,9.2,0.6"/>
			</g>
			<g>
				<path class="st5" d="M1607.4,593.1c4.4-2.5,9.2,0.6,9.2,0.6"/>
			</g>
		</g>
		<circle class="st2" cx="1343.5" cy="1082.5" r="7.4"/>
		<circle class="st2" cx="1840.2" cy="1067.4" r="7.4"/>
		<circle class="st2" cx="1470.6" cy="803.6" r="7.4"/>
		<circle class="st2" cx="779.6" cy="673.9" r="7.4"/>
		<circle class="st2" cx="1180.7" cy="904.6" r="7.4"/>
		<path class="st3" d="M1782.6,883.5l-18.6-0.5c0,0-0.4-19.4,0.5-18.4C1765.4,865.4,1782.6,883.5,1782.6,883.5z"/>
		<path class="st3" d="M1375.1,266.7l-13.1,13.3c0,0-14.4-12.9-13.1-12.9C1350.1,267,1375.1,266.7,1375.1,266.7z"/>
		<path class="st3" d="M1051.6,805l-17.2,7.1c0,0-8.2-17.5-7-17.1C1028.5,795.6,1051.6,805,1051.6,805z"/>
		<path class="st3" d="M1553,952.9l16.5-8.6c0,0,9.7,16.7,8.5,16.4C1576.9,960.3,1553,952.9,1553,952.9z"/>
		<path class="st3" d="M40.8,26.6l1,18.6c0,0-19.3,2-18.4,1C24.3,45.3,40.8,26.6,40.8,26.6z"/>
		<path class="st3" d="M1263.6,747.3l1,18.6c0,0-19.3,2-18.4,1C1247,765.9,1263.6,747.3,1263.6,747.3z"/>
		<circle class="st2" cx="1879.8" cy="785.8" r="7.4"/>
		<circle class="st2" cx="1511.5" cy="254.2" r="7.4"/>
		<g>
			<g>
				<path class="st5" d="M968,416.7c0,0,3.8,4.3,8.7,3c4.9-1.3,6.1-6.9,6.1-6.9s1.2-5.6,6.1-6.9c4.9-1.3,8.7,3,8.7,3"/>
			</g>
			<g>
				<path class="st5" d="M938.4,424.5c0,0,3.8,4.3,8.7,3c4.9-1.3,6.1-6.9,6.1-6.9s1.2-5.6,6.1-6.9c4.9-1.3,8.7,3,8.7,3"/>
			</g>
			<g>
				<path class="st5" d="M929.8,421.5c4.9-1.3,8.7,3,8.7,3"/>
			</g>
		</g>
		<g>
			<g>
				<path class="st5" d="M1709.5,1012.8c0,0,3.2,4.7,8.2,4.1s6.9-6,6.9-6s1.9-5.4,6.9-6s8.2,4.1,8.2,4.1"/>
			</g>
			<g>
				<path class="st5" d="M1679.2,1016.7c0,0,3.2,4.7,8.2,4.1c5.1-0.7,6.9-6,6.9-6s1.9-5.4,6.9-6c5.1-0.7,8.2,4.1,8.2,4.1"/>
			</g>
			<g>
				<path class="st5" d="M1670.9,1012.6c5.1-0.7,8.2,4.1,8.2,4.1"/>
			</g>
		</g>
		<g>
			<g>
				<path class="st5" d="M1056.3,1079c0,0,1.1,5.6,6,6.9s8.7-2.9,8.7-2.9s3.8-4.2,8.7-2.9s6,6.9,6,6.9"/>
			</g>
			<g>
				<path class="st5" d="M1026.9,1071c0,0,1.1,5.6,6,6.9c4.9,1.3,8.7-2.9,8.7-2.9s3.8-4.2,8.7-2.9s6,6.9,6,6.9"/>
			</g>
			<g>
				<path class="st5" d="M1020.8,1064.1c4.9,1.3,6,6.9,6,6.9"/>
			</g>
		</g>
		<g>
			<g>
				<path class="st5" d="M1752.6,220.7c0,0,0.6,5.7,5.4,7.4s8.9-2.1,8.9-2.1s4.2-3.9,8.9-2.1c4.8,1.8,5.4,7.4,5.4,7.4"/>
			</g>
			<g>
				<path class="st5" d="M1724,210.1c0,0,0.6,5.7,5.4,7.4c4.8,1.8,8.9-2.1,8.9-2.1s4.2-3.9,8.9-2.1s5.4,7.4,5.4,7.4"/>
			</g>
			<g>
				<path class="st5" d="M1718.6,202.7c4.8,1.8,5.4,7.4,5.4,7.4"/>
			</g>
		</g>
		<g>
			<g>
				<path class="st5" d="M1398.3,498c0,0,2.1-5.3-1.2-9.1c-3.4-3.8-8.9-2.4-8.9-2.4s-5.5,1.5-8.9-2.4c-3.4-3.8-1.2-9.1-1.2-9.1"/>
			</g>
			<g>
				<path class="st5" d="M1418.5,520.9c0,0,2.1-5.3-1.2-9.1c-3.4-3.8-8.9-2.4-8.9-2.4s-5.5,1.5-8.9-2.4c-3.4-3.8-1.2-9.1-1.2-9.1"/>
			</g>
			<g>
				<path class="st5" d="M1419.8,530c-3.4-3.8-1.2-9.1-1.2-9.1"/>
			</g>
		</g>
		<g>
			<line class="st4" x1="1180.7" y1="1024.5" x2="1180.7" y2="1009.6"/>
			<line class="st4" x1="1173.2" y1="1017.1" x2="1188.1" y2="1017.1"/>
		</g>
		<g>
			<line class="st4" x1="1395.8" y1="906.5" x2="1406.5" y2="896.1"/>
			<line class="st4" x1="1396" y1="895.9" x2="1406.3" y2="906.7"/>
		</g>
		<g>
			<line class="st4" x1="1845.1" y1="937" x2="1855.1" y2="925.9"/>
			<line class="st4" x1="1844.5" y1="926.4" x2="1855.6" y2="936.4"/>
		</g>
		<g>
			<line class="st4" x1="1001.5" y1="946.2" x2="1001.5" y2="931.3"/>
			<line class="st4" x1="994.1" y1="938.8" x2="1009" y2="938.8"/>
		</g>
		<g>
			<line class="st4" x1="1486.9" y1="1028.5" x2="1499.5" y2="1020.5"/>
			<line class="st4" x1="1489.2" y1="1018.2" x2="1497.2" y2="1030.8"/>
		</g>
		<g>
			<g>
				<path class="st5" d="M1244.6,61.8c0,0,4.5,3.5,9.1,1.3s4.7-7.9,4.7-7.9s0.1-5.7,4.7-7.9s9.1,1.3,9.1,1.3"/>
			</g>
			<g>
				<path class="st5" d="M1217.1,75c0,0,4.5,3.5,9.1,1.3c4.6-2.2,4.7-7.9,4.7-7.9s0.1-5.7,4.7-7.9c4.6-2.2,9.1,1.3,9.1,1.3"/>
			</g>
			<g>
				<path class="st5" d="M1208,73.7c4.6-2.2,9.1,1.3,9.1,1.3"/>
			</g>
		</g>
		<g>
			<g>
				<path class="st5" d="M1900.7,423.4c0,0,4.1,4,8.9,2.3s5.6-7.3,5.6-7.3s0.7-5.6,5.6-7.3c4.8-1.7,8.9,2.3,8.9,2.3"/>
			</g>
			<g>
				<path class="st5" d="M1871.8,433.4c0,0,4.1,4,8.9,2.3s5.6-7.3,5.6-7.3s0.7-5.6,5.6-7.3s8.9,2.3,8.9,2.3"/>
			</g>
			<g>
				<path class="st5" d="M1862.9,431.1c4.8-1.7,8.9,2.3,8.9,2.3"/>
			</g>
		</g>
		<path class="st3" d="M1306.6,964.1l2.3,18.5c0,0-19.1,3.3-18.3,2.3S1306.6,964.1,1306.6,964.1z"/>
		<line class="st4" x1="1397.2" y1="1007.8" x2="1401.8" y2="993.6"/>
		<line class="st4" x1="1326.1" y1="847.6" x2="1311.2" y2="846"/>
		<line class="st4" x1="1634.9" y1="849.3" x2="1622.6" y2="857.8"/>
		<line class="st4" x1="1366.4" y1="399.2" x2="1380.9" y2="395.7"/>
		<line class="st4" x1="1396.2" y1="769.4" x2="1395.3" y2="754.5"/>
		<line class="st4" x1="1870.5" y1="999.2" x2="1884.8" y2="995.1"/>
		<line class="st4" x1="1571" y1="1058.5" x2="1585.4" y2="1054.3"/>
		<line class="st4" x1="1093.9" y1="986.6" x2="1108.3" y2="982.4"/>
		<g>
			<line class="st4" x1="1797.8" y1="782.4" x2="1807.7" y2="771.3"/>
			<line class="st4" x1="1797.2" y1="771.9" x2="1808.3" y2="781.8"/>
		</g>
		<g>
			<g>
				<path class="st5" d="M23.4,281.1c0,0,4.7,3.2,9.2,0.6s4.1-8.2,4.1-8.2s-0.3-5.7,4.1-8.2c4.4-2.5,9.2,0.6,9.2,0.6"/>
			</g>
			<g>
				<path class="st5" d="M-3.2,296.3c0,0,4.7,3.2,9.2,0.6c4.4-2.5,4.1-8.2,4.1-8.2s-0.3-5.7,4.1-8.2s9.2,0.6,9.2,0.6"/>
			</g>
		</g>
		<circle class="st2" cx="68.7" cy="948.6" r="7.4"/>
		<circle class="st2" cx="546.7" cy="1054.7" r="7.4"/>
		<circle class="st2" cx="600.4" cy="846.8" r="7.4"/>
		<circle class="st2" cx="352.4" cy="941" r="7.4"/>
		<circle class="st2" cx="956.6" cy="995.5" r="7.4"/>
		<path class="st3" d="M249.8,1075l17.9-5.3c0,0,6.3,18.3,5.2,17.7C271.8,1086.8,249.8,1075,249.8,1075z"/>
		<path class="st3" d="M753.7,921l-11.3,14.8c0,0-15.9-11-14.6-11.2C729,924.4,753.7,921,753.7,921z"/>
		<path class="st3" d="M277.6,841.8l13.1-13.3c0,0,14.4,12.9,13.1,12.9C302.5,841.5,277.6,841.8,277.6,841.8z"/>
		<path class="st3" d="M798.3,779.5l-1-18.6c0,0,19.3-2,18.4-1C814.9,760.8,798.3,779.5,798.3,779.5z"/>
		<circle class="st2" cx="141.2" cy="854.3" r="7.4"/>
		<g>
			<g>
				<path class="st5" d="M466.9,24.1c0,0-3.8-4.3-8.7-3c-4.9,1.3-6.1,6.9-6.1,6.9s-1.2,5.6-6.1,6.9c-4.9,1.3-8.7-3-8.7-3"/>
			</g>
			<g>
				<path class="st5" d="M496.5,16.4c0,0-3.8-4.3-8.7-3c-4.9,1.3-6.1,6.9-6.1,6.9s-1.2,5.6-6.1,6.9c-4.9,1.3-8.7-3-8.7-3"/>
			</g>
			<g>
				<path class="st5" d="M505.2,19.4c-4.9,1.3-8.7-3-8.7-3"/>
			</g>
		</g>
		<g>
			<g>
				<path class="st5" d="M787.1,1012.5c0,0-1.1-5.6-6-6.9s-8.7,2.9-8.7,2.9s-3.8,4.2-8.7,2.9s-6-6.9-6-6.9"/>
			</g>
			<g>
				<path class="st5" d="M816.6,1020.6c0,0-1.1-5.6-6-6.9c-4.9-1.3-8.7,2.9-8.7,2.9s-3.8,4.2-8.7,2.9c-4.9-1.3-6-6.9-6-6.9"/>
			</g>
			<g>
				<path class="st5" d="M822.6,1027.5c-4.9-1.3-6-6.9-6-6.9"/>
			</g>
		</g>
		<g>
			<g>
				<path class="st5" d="M387.9,769.9c0,0-4.7-3.2-9.2-0.6c-4.4,2.5-4.1,8.2-4.1,8.2s0.3,5.7-4.1,8.2c-4.4,2.5-9.2-0.6-9.2-0.6"/>
			</g>
			<g>
				<path class="st5" d="M414.4,754.7c0,0-4.7-3.2-9.2-0.6s-4.1,8.2-4.1,8.2s0.3,5.7-4.1,8.2c-4.4,2.5-9.2-0.6-9.2-0.6"/>
			</g>
			<g>
				<path class="st5" d="M423.6,755.4c-4.4,2.5-9.2-0.6-9.2-0.6"/>
			</g>
		</g>
		<g>
			<g>
				<path class="st5" d="M29.9,1069.5c0,0-0.6-5.7-5.4-7.4c-4.8-1.8-8.9,2.1-8.9,2.1s-4.2,3.9-8.9,2.1s-5.4-7.4-5.4-7.4"/>
			</g>
			<g>
				<path class="st5" d="M58.6,1080c0,0-0.6-5.7-5.4-7.4s-8.9,2.1-8.9,2.1s-4.2,3.9-8.9,2.1c-4.8-1.8-5.4-7.4-5.4-7.4"/>
			</g>
			<g>
				<path class="st5" d="M64,1087.4c-4.8-1.8-5.4-7.4-5.4-7.4"/>
			</g>
		</g>
		<g>
			<line class="st4" x1="198.7" y1="957.4" x2="206.4" y2="970.1"/>
			<line class="st4" x1="208.9" y1="959.8" x2="196.2" y2="967.6"/>
		</g>
		<g>
			<line class="st4" x1="729" y1="825.8" x2="743.2" y2="830.4"/>
			<line class="st4" x1="738.4" y1="821" x2="733.8" y2="835.2"/>
		</g>
		<g>
			<g>
				<path class="st5" d="M512.1,480.6c0,0-4.5-3.5-9.1-1.3c-4.6,2.2-4.7,7.9-4.7,7.9s-0.1,5.7-4.7,7.9c-4.6,2.2-9.1-1.3-9.1-1.3"/>
			</g>
			<g>
				<path class="st5" d="M539.6,467.4c0,0-4.5-3.5-9.1-1.3c-4.6,2.2-4.7,7.9-4.7,7.9s-0.1,5.7-4.7,7.9c-4.6,2.2-9.1-1.3-9.1-1.3"/>
			</g>
			<g>
				<path class="st5" d="M548.7,468.7c-4.6,2.2-9.1-1.3-9.1-1.3"/>
			</g>
		</g>
		<path class="st3" d="M522.1,964.6l-2.3-18.5c0,0,19.1-3.3,18.3-2.3C537.3,944.8,522.1,964.6,522.1,964.6z"/>
		<path class="st3" d="M889.6,912.5l-16.5,8.6c0,0-9.7-16.7-8.5-16.4C865.8,905.1,889.6,912.5,889.6,912.5z"/>
		<line class="st4" x1="905.5" y1="809.8" x2="892.3" y2="816.8"/>
		<line class="st4" x1="194.6" y1="763.4" x2="202.8" y2="775.8"/>
		<line class="st4" x1="470" y1="874.9" x2="455.5" y2="878.4"/>
		<line class="st4" x1="711.8" y1="751" x2="707.2" y2="765.2"/>
		<line class="st4" x1="663" y1="996.7" x2="649.5" y2="990.4"/>
		<line class="st4" x1="382.1" y1="1017.1" x2="370.3" y2="1008"/>
		<line class="st4" x1="57.1" y1="874.6" x2="42.8" y2="878.8"/>
		<g>
			<g>
				<path class="st5" d="M222.4,475.7c0,0-4.7-3.2-9.2-0.6c-4.4,2.5-4.1,8.2-4.1,8.2s0.3,5.7-4.1,8.2c-4.4,2.5-9.2-0.6-9.2-0.6"/>
			</g>
			<g>
				<path class="st5" d="M248.9,460.6c0,0-4.7-3.2-9.2-0.6c-4.4,2.5-4.1,8.2-4.1,8.2s0.3,5.7-4.1,8.2c-4.4,2.5-9.2-0.6-9.2-0.6"/>
			</g>
			<g>
				<path class="st5" d="M258.1,461.2c-4.4,2.5-9.2-0.6-9.2-0.6"/>
			</g>
		</g>
		<circle class="st2" cx="953.2" cy="744.1" r="7.4"/>
	</g>
</g>
</svg>
